# xmcd
#
# Track frame offsets:
#	150
#	29751
#	68464
#	87674
#	111899
#	129622
#	154890
#	176561
#	195087
#	215208
#	237353
#	255983
#	268121
#
# Disc length: 3912 seconds
#
# Revision: 1
# Processed by: cddbd v1.4PL0 Copyright (c) Steve Scherf et al.
# Submitted via: audiograbber 1.80
#
DISCID=ba0f460d
DTITLE=EDDIE MARTIN band - Blue To The Bone
DYEAR=1900
DGENRE=
TTITLE0=Blue To The Bone
TTITLE1=Autumn Blues
TTITLE2=The Fumble
TTITLE3=Edge Of The Line
TTITLE4=You Trill Me
TTITLE5=Something For Nothing
TTITLE6=Big Enough Lever
TTITLE7=Revolution Of Love
TTITLE8=On Your Own
TTITLE9=Sad Time
TTITLE10=Protest Letter
TTITLE11=The Birds And The Bees
TTITLE12=No Place To Go
EXTD=
EXTT0=
EXTT1=
EXTT2=
EXTT3=
EXTT4=
EXTT5=
EXTT6=
EXTT7=
EXTT8=
EXTT9=
EXTT10=
EXTT11=
EXTT12=
PLAYORDER=
